<svg xmlns="http://www.w3.org/2000/svg" viewBox="0 0 1500 500" width="1500" height="500" preserveAspectRatio="xMidYMid slice">
<defs>
<filter id="blur" x="-30%" y="-80%" width="160%" height="260%"><feGaussianBlur stdDeviation="90"/></filter>
<filter id="soft"><feGaussianBlur stdDeviation="1.2"/></filter>
<filter id="grain" x="0" y="0" width="100%" height="100%"><feTurbulence type="fractalNoise" baseFrequency="0.9" numOctaves="2" stitchTiles="stitch"/><feColorMatrix values="0 0 0 0 1  0 0 0 0 1  0 0 0 0 1  0 0 0 0.09 0"/></filter>
<linearGradient id="ribbon0" x1="0" y1="0" x2="1" y2="0"><stop offset="0" stop-color="#fff" stop-opacity="0"/><stop offset="0.5" stop-color="#fff" stop-opacity="0.9"/><stop offset="1" stop-color="#fde68a" stop-opacity="0"/></linearGradient>
<linearGradient id="ribbon1" x1="0" y1="0" x2="1" y2="0"><stop offset="0" stop-color="#f59e0b" stop-opacity="0"/><stop offset="0.4" stop-color="#f43f5e" stop-opacity="0.9"/><stop offset="1" stop-color="#fff" stop-opacity="0"/></linearGradient>
<linearGradient id="fade" x1="0" y1="0" x2="0" y2="1"><stop offset="0.55" stop-color="#0f0a03" stop-opacity="0"/><stop offset="1" stop-color="#0f0a03" stop-opacity="0.75"/></linearGradient>
</defs>
<rect width="1500" height="500" fill="#0f0a03"/>
<g filter="url(#blur)"><ellipse cx="136" cy="176" rx="365" ry="134" fill="#f59e0b" opacity="0.61"/><ellipse cx="1135" cy="261" rx="466" ry="126" fill="#f43f5e" opacity="0.74"/><ellipse cx="565" cy="79" rx="376" ry="213" fill="#fde68a" opacity="0.52"/><ellipse cx="1118" cy="258" rx="316" ry="197" fill="#f59e0b" opacity="0.60"/><ellipse cx="760" cy="204" rx="267" ry="151" fill="#f43f5e" opacity="0.75"/><ellipse cx="196" cy="216" rx="446" ry="168" fill="#fde68a" opacity="0.61"/><ellipse cx="733" cy="137" rx="427" ry="171" fill="#f59e0b" opacity="0.84"/></g>
<g filter="url(#soft)"><circle cx="455" cy="167" r="1" fill="#fff" opacity="0.57"/><circle cx="1253" cy="250" r="1.4" fill="#fff" opacity="0.67"/><circle cx="551" cy="280" r="0.6" fill="#fff" opacity="0.55"/><circle cx="304" cy="5" r="0.8" fill="#fff" opacity="0.76"/><circle cx="621" cy="32" r="0.6" fill="#fff" opacity="0.63"/><circle cx="766" cy="29" r="1.4" fill="#fff" opacity="0.72"/><circle cx="151" cy="243" r="0.8" fill="#fff" opacity="0.67"/><circle cx="609" cy="246" r="0.8" fill="#fff" opacity="0.39"/><circle cx="699" cy="53" r="0.6" fill="#fff" opacity="0.64"/><circle cx="1011" cy="233" r="0.6" fill="#fff" opacity="0.77"/><circle cx="1237" cy="36" r="0.8" fill="#fff" opacity="0.38"/><circle cx="694" cy="268" r="0.6" fill="#fff" opacity="0.62"/><circle cx="761" cy="184" r="0.6" fill="#fff" opacity="0.59"/><circle cx="1482" cy="59" r="0.8" fill="#fff" opacity="0.58"/><circle cx="1222" cy="219" r="0.6" fill="#fff" opacity="0.39"/><circle cx="737" cy="264" r="0.8" fill="#fff" opacity="0.50"/><circle cx="250" cy="289" r="1.4" fill="#fff" opacity="0.75"/><circle cx="1170" cy="66" r="1.4" fill="#fff" opacity="0.59"/><circle cx="523" cy="261" r="0.6" fill="#fff" opacity="0.44"/><circle cx="1158" cy="160" r="1.4" fill="#fff" opacity="0.77"/><circle cx="1480" cy="265" r="0.8" fill="#fff" opacity="0.25"/><circle cx="68" cy="164" r="0.6" fill="#fff" opacity="0.52"/><circle cx="531" cy="286" r="0.6" fill="#fff" opacity="0.77"/><circle cx="1481" cy="264" r="1" fill="#fff" opacity="0.74"/><circle cx="898" cy="112" r="0.6" fill="#fff" opacity="0.73"/><circle cx="1212" cy="78" r="1" fill="#fff" opacity="0.47"/><circle cx="553" cy="298" r="0.8" fill="#fff" opacity="0.67"/><circle cx="448" cy="309" r="1" fill="#fff" opacity="0.80"/><circle cx="438" cy="23" r="0.6" fill="#fff" opacity="0.49"/><circle cx="1436" cy="63" r="0.6" fill="#fff" opacity="0.75"/><circle cx="1039" cy="219" r="0.8" fill="#fff" opacity="0.53"/><circle cx="568" cy="141" r="0.8" fill="#fff" opacity="0.51"/><circle cx="1312" cy="150" r="1" fill="#fff" opacity="0.65"/><circle cx="26" cy="154" r="0.8" fill="#fff" opacity="0.71"/><circle cx="1325" cy="168" r="0.8" fill="#fff" opacity="0.31"/><circle cx="199" cy="173" r="0.6" fill="#fff" opacity="0.59"/><circle cx="855" cy="322" r="0.8" fill="#fff" opacity="0.75"/><circle cx="1432" cy="117" r="1" fill="#fff" opacity="0.54"/><circle cx="168" cy="67" r="1" fill="#fff" opacity="0.72"/><circle cx="211" cy="112" r="0.6" fill="#fff" opacity="0.30"/><circle cx="962" cy="43" r="0.8" fill="#fff" opacity="0.38"/><circle cx="1019" cy="239" r="1" fill="#fff" opacity="0.45"/><circle cx="404" cy="159" r="0.6" fill="#fff" opacity="0.35"/><circle cx="599" cy="227" r="0.6" fill="#fff" opacity="0.69"/><circle cx="1450" cy="233" r="0.8" fill="#fff" opacity="0.48"/><circle cx="1315" cy="69" r="0.6" fill="#fff" opacity="0.64"/><circle cx="1282" cy="17" r="0.6" fill="#fff" opacity="0.66"/><circle cx="1458" cy="81" r="1.4" fill="#fff" opacity="0.32"/><circle cx="380" cy="88" r="1" fill="#fff" opacity="0.37"/><circle cx="12" cy="191" r="1" fill="#fff" opacity="0.52"/><circle cx="554" cy="117" r="1.4" fill="#fff" opacity="0.42"/><circle cx="396" cy="312" r="1.4" fill="#fff" opacity="0.58"/><circle cx="35" cy="247" r="0.8" fill="#fff" opacity="0.74"/><circle cx="1011" cy="226" r="0.6" fill="#fff" opacity="0.51"/><circle cx="1142" cy="25" r="0.8" fill="#fff" opacity="0.75"/><circle cx="848" cy="60" r="0.6" fill="#fff" opacity="0.79"/><circle cx="369" cy="74" r="0.6" fill="#fff" opacity="0.55"/><circle cx="342" cy="36" r="1" fill="#fff" opacity="0.43"/><circle cx="1069" cy="29" r="0.8" fill="#fff" opacity="0.63"/><circle cx="1225" cy="263" r="1.4" fill="#fff" opacity="0.75"/><circle cx="992" cy="46" r="1" fill="#fff" opacity="0.64"/><circle cx="1104" cy="93" r="1.4" fill="#fff" opacity="0.47"/><circle cx="969" cy="323" r="1.4" fill="#fff" opacity="0.51"/><circle cx="1071" cy="180" r="1" fill="#fff" opacity="0.77"/><circle cx="501" cy="278" r="0.8" fill="#fff" opacity="0.38"/><circle cx="165" cy="145" r="1.4" fill="#fff" opacity="0.56"/><circle cx="28" cy="262" r="0.6" fill="#fff" opacity="0.65"/><circle cx="1388" cy="270" r="1" fill="#fff" opacity="0.35"/><circle cx="438" cy="4" r="1" fill="#fff" opacity="0.46"/><circle cx="632" cy="94" r="0.6" fill="#fff" opacity="0.44"/></g>
<path d="M-50 269 C 350 307, 900 162, 1550 239" fill="none" stroke="url(#ribbon0)" stroke-width="2.4" opacity="0.75"/><path d="M-50 309 C 350 421, 900 346, 1550 279" fill="none" stroke="url(#ribbon1)" stroke-width="1.6" opacity="0.63"/><path d="M-50 324 C 350 348, 900 269, 1550 294" fill="none" stroke="url(#ribbon0)" stroke-width="2.2" opacity="0.51"/><path d="M-50 399 C 350 360, 900 313, 1550 369" fill="none" stroke="url(#ribbon1)" stroke-width="2.1" opacity="0.39"/>
<rect width="1500" height="500" fill="url(#fade)"/>
<rect width="1500" height="500" filter="url(#grain)"/>
</svg>
